<?xml version="1.0" standalone="no"?>
<!DOCTYPE svg PUBLIC "-//W3C//DTD SVG 20010904//EN"
 "http://www.w3.org/TR/2001/REC-SVG-20010904/DTD/svg10.dtd">
<svg version="1.0" xmlns="http://www.w3.org/2000/svg"
 width="512.000000pt" height="512.000000pt" viewBox="0 0 512.000000 512.000000"
 preserveAspectRatio="xMidYMid meet">
<metadata>
Created by potrace 1.11, written by Peter Selinger 2001-2013
</metadata>
<g transform="translate(0.000000,512.000000) scale(0.100000,-0.100000)"
fill="#000000" stroke="none">
<path d="M1423 4676 c-61 -20 -122 -58 -169 -108 -26 -27 -236 -378 -559 -933
-286 -490 -528 -908 -539 -930 -30 -58 -30 -232 0 -290 11 -22 253 -440 539
-930 367 -631 531 -904 564 -938 26 -27 75 -62 111 -80 l65 -32 1120 0 1120 0
65 32 c36 18 85 53 111 80 33 34 197 307 564 938 286 490 528 908 539 930 30
58 30 232 0 290 -11 22 -253 440 -539 930 -367 631 -531 904 -564 938 -26 27
-75 62 -111 80 l-65 32 -1105 2 c-894 1 -1113 -1 -1147 -11z m965 -1311 l-3
-386 -427 -207 c-235 -115 -430 -210 -432 -213 -3 -3 188 -99 424 -213 l430
-209 0 -382 0 -383 -825 402 -825 401 2 389 3 390 815 397 c448 219 821 398
828 398 10 1 12 -79 10 -384z m1168 -13 l819 -398 3 -390 2 -389 -825 -401
-825 -402 0 383 0 382 430 209 c236 114 427 210 424 213 -2 2 -197 98 -432
213 l-427 208 -3 385 c-1 219 2 385 7 385 5 0 377 -179 827 -398z"/>
</g>
</svg>
